<?xml version="1.0" encoding="UTF-8" standalone="no"?>
<!-- Generator: Adobe Illustrator 19.0.0, SVG Export Plug-In . SVG Version: 6.00 Build 0)  -->

<svg
   xmlns:dc="http://purl.org/dc/elements/1.1/"
   xmlns:cc="http://creativecommons.org/ns#"
   xmlns:rdf="http://www.w3.org/1999/02/22-rdf-syntax-ns#"
   xmlns:svg="http://www.w3.org/2000/svg"
   xmlns="http://www.w3.org/2000/svg"
   xmlns:sodipodi="http://sodipodi.sourceforge.net/DTD/sodipodi-0.dtd"
   xmlns:inkscape="http://www.inkscape.org/namespaces/inkscape"
   version="1.1"
   id="Capa_1"
   x="0px"
   y="0px"
   viewBox="0 0 512 512"
   style="enable-background:new 0 0 512 512;"
   xml:space="preserve"
   sodipodi:docname="hoja_cuaderno.svg"
   inkscape:version="0.92.4 (5da689c313, 2019-01-14)"><metadata
   id="metadata50"><rdf:RDF><cc:Work
       rdf:about=""><dc:format>image/svg+xml</dc:format><dc:type
         rdf:resource="http://purl.org/dc/dcmitype/StillImage" /></cc:Work></rdf:RDF></metadata><defs
   id="defs48">



</defs><sodipodi:namedview
   pagecolor="#ffffff"
   bordercolor="#666666"
   borderopacity="1"
   objecttolerance="10"
   gridtolerance="10"
   guidetolerance="10"
   inkscape:pageopacity="0"
   inkscape:pageshadow="2"
   inkscape:window-width="1280"
   inkscape:window-height="972"
   id="namedview46"
   showgrid="false"
   inkscape:zoom="3.6875"
   inkscape:cx="157.30248"
   inkscape:cy="373.26254"
   inkscape:window-x="-8"
   inkscape:window-y="-8"
   inkscape:window-maximized="1"
   inkscape:current-layer="Capa_1" />
<g
   id="g826"><path
     style="fill:#000000;fill-opacity:0.44444445"
     inkscape:connector-curvature="0"
     id="path2"
     d="m 117.27089,222.3159 c -0.0362,2.60743 2.17276,4.81655 4.78925,4.75322 l 100.61238,0.011 c 2.60742,0.0362 4.81653,-2.17277 4.75321,-4.78925 l 0.0118,-143.689279 c 0.0362,-2.607428 -2.17276,-4.816542 -4.78925,-4.753217 l -100.61236,-0.01099 c -2.60743,-0.03626 -4.81655,2.172765 -4.75323,4.789249 l -0.0186,2.408249 -4.8165,-0.03631 -0.0363,4.816502 4.81649,0.03631 -0.0364,4.8165 -4.8165,-0.03631 -0.0363,4.816498 4.8165,0.03631 -0.0453,4.916099 -4.81651,-0.0363 -0.0363,4.81649 4.8165,0.0364 -0.0268,4.71691 -4.8165,-0.0363 -0.0363,4.81651 4.81651,0.0363 -0.0363,4.81651 -4.81651,-0.0364 -0.0363,4.8165 4.81651,0.0364 -0.0453,4.91609 -4.8165,-0.0364 -0.0364,4.81651 4.81649,0.0364 -0.0268,4.71691 -4.81651,-0.0364 -0.0363,4.8165 4.8165,0.0364 -0.0363,4.8165 -4.8165,-0.0364 -0.0364,4.81649 4.81649,0.0364 -0.0453,4.91609 -4.81649,-0.0364 -0.0364,4.8165 4.81651,0.0364 -0.0268,4.71691 -4.81651,-0.0363 -0.0363,4.81651 4.81649,0.0364 -0.0363,4.81651 -4.8165,-0.0364 -0.0363,4.81651 4.8165,0.0364 -0.0453,4.9161 -4.8165,-0.0364 -0.0363,4.81651 4.81651,0.0363 -0.0268,4.71692 -4.81649,-0.0363 -0.0364,4.81649 4.8165,0.0364 -0.0182,4.61731 -4.8165,-0.0364 -0.0364,4.8165 4.81651,0.0364 -0.0364,4.8165 -4.8165,-0.0364 -0.0363,4.81648 4.8165,0.0364 z" /><path
     style="fill:#ecf0f1"
     inkscape:connector-curvature="0"
     id="path4"
     d="m 229.84031,220.00676 c -0.0404,2.60738 -2.15353,4.82208 -4.7609,4.78163 l -100.61222,-0.1723 c -2.60738,-0.0404 -4.82207,-2.15353 -4.78163,-4.76089 l 0.2422,-143.689075 c 0.0404,-2.607368 2.15352,-4.822068 4.76088,-4.781623 l 100.61224,0.172297 c 2.60736,0.04045 4.82206,2.153525 4.78162,4.760892 z" /><path
     style="fill:#e5e5e5"
     inkscape:connector-curvature="0"
     id="path6"
     d="m 124.56386,198.37971 -9.54239,0.055 0.0267,-4.81656 9.54238,-0.055 z m 0.0906,4.62621 -9.54238,0.0549 -0.0268,4.81657 9.54238,-0.0549 z m -0.0446,9.53352 -9.54238,0.0549 -0.0267,4.81657 9.54236,-0.0549 z m -0.083,-28.41905 -9.54236,0.0549 -0.0268,4.81656 9.54238,-0.0549 z m 0.0624,-9.73274 -9.54239,0.0549 -0.0267,4.81657 9.54237,-0.0549 z m -0.055,-9.54239 -9.54238,0.055 -0.0267,4.81656 9.54238,-0.055 z m -0.0549,-9.54237 -9.54238,0.0549 -0.0267,4.81656 9.54239,-0.055 z m 0.0535,-9.63313 -9.54237,0.0549 -0.0268,4.81657 9.54237,-0.0549 z m -0.0461,-9.64199 -9.54238,0.055 -0.0268,4.81657 9.54238,-0.055 z m -0.0638,-9.44276 -9.54237,0.055 -0.0268,4.81656 9.54239,-0.0549 z m 0.0624,-9.73274 -9.54238,0.055 -0.0268,4.81656 9.54238,-0.0549 z m -0.055,-9.54238 -9.54236,0.055 -0.0268,4.81657 9.54237,-0.055 z m -0.055,-9.542376 -9.54239,0.05495 -0.0267,4.816564 9.54237,-0.0549 z m 0.0536,-9.633123 -9.54237,0.05495 -0.0267,4.816564 9.54237,-0.05495 z m -0.0461,-9.641985 -9.54237,0.05495 -0.0267,4.816563 9.54239,-0.05495 z" /></g></svg>