<?xml version="1.0" encoding="UTF-8" standalone="no"?>
<!-- Generator: Adobe Illustrator 19.2.1, SVG Export Plug-In . SVG Version: 6.00 Build 0)  -->

<svg
   xmlns:dc="http://purl.org/dc/elements/1.1/"
   xmlns:cc="http://creativecommons.org/ns#"
   xmlns:rdf="http://www.w3.org/1999/02/22-rdf-syntax-ns#"
   xmlns:svg="http://www.w3.org/2000/svg"
   xmlns="http://www.w3.org/2000/svg"
   xmlns:sodipodi="http://sodipodi.sourceforge.net/DTD/sodipodi-0.dtd"
   xmlns:inkscape="http://www.inkscape.org/namespaces/inkscape"
   version="1.1"
   id="layer"
   x="0px"
   y="0px"
   viewBox="0 0 652 652"
   style="enable-background:new 0 0 652 652;"
   xml:space="preserve"
   sodipodi:docname="linkedin-logo-vector.svg"
   inkscape:version="0.92.4 (5da689c313, 2019-01-14)"><metadata
   id="metadata31"><rdf:RDF><cc:Work
       rdf:about=""><dc:format>image/svg+xml</dc:format><dc:type
         rdf:resource="http://purl.org/dc/dcmitype/StillImage" /></cc:Work></rdf:RDF></metadata><defs
   id="defs29">
	
	
	
	
	
	
	
	
	
	
</defs><sodipodi:namedview
   pagecolor="#ffffff"
   bordercolor="#666666"
   borderopacity="1"
   objecttolerance="10"
   gridtolerance="10"
   guidetolerance="10"
   inkscape:pageopacity="0"
   inkscape:pageshadow="2"
   inkscape:window-width="1280"
   inkscape:window-height="972"
   id="namedview27"
   showgrid="false"
   inkscape:zoom="0.36196319"
   inkscape:cx="326"
   inkscape:cy="326"
   inkscape:window-x="-8"
   inkscape:window-y="-8"
   inkscape:window-maximized="1"
   inkscape:current-layer="layer" />
<style
   type="text/css"
   id="style2">
	.st0{fill:#0073B1;}
	.st1{fill-rule:evenodd;clip-rule:evenodd;}
	.st2{fill-rule:evenodd;clip-rule:evenodd;fill:#FFFFFF;}
</style>
<path
   style="fill:#0073b1"
   inkscape:connector-curvature="0"
   id="path4"
   d="m 15.528814,38.483051 c 0,-6.3 5.2,-11.3 11.6,-11.3 H 161.02881 c 6.4,0 11.6,5.1 11.6,11.3 V 173.98305 c 0,6.3 -5.2,11.3 -11.6,11.3 H 27.128814 c -6.4,0 -11.6,-5.1 -11.6,-11.3 z"
   class="st0" /><path
   style="clip-rule:evenodd;fill:#ffffff;fill-rule:evenodd"
   inkscape:connector-curvature="0"
   id="path18"
   d="m 51.328814,78.383051 c 8.3,0 13.4,-5.5 13.4,-12.3 -0.2,-7 -5.2,-12.3 -13.3,-12.3 -8.1,0 -13.4,5.3 -13.4,12.3 0,6.9 5.2,12.3 13.1,12.3 z m 11.8,9.8 h -23.7 v 71.399999 h 23.7 z"
   class="st2" /><path
   style="clip-rule:evenodd;fill:#ffffff;fill-rule:evenodd"
   inkscape:connector-curvature="0"
   id="path20"
   d="m 76.228814,159.58305 h 23.7 v -39.9 c 0,-2.1 0.199996,-4.3 0.799996,-5.8 1.7,-4.3 5.6,-8.7 12.2,-8.7 8.6,0 12,6.6 12,16.1 v 38.2 h 23.8 v -40.9 c 0,-21.899999 -11.7,-32.099999 -27.3,-32.099999 -12.8,0 -18.4,7.2 -21.499996,12 h 0.199996 v -10.4 H 76.428814 c 0.2,6.8 -0.2,71.499999 -0.2,71.499999"
   class="st2" />
</svg>